<mxfile host="app.diagrams.net" agent="Mozilla/5.0 (Windows NT 10.0; Win64; x64) AppleWebKit/537.36 (KHTML, like Gecko) Chrome/130.0.0.0 Safari/537.36" version="24.8.6">
  <diagram name="第 1 页" id="RnSF4aMlyjjzss2sWeVw">
    <mxGraphModel dx="1050" dy="522" grid="0" gridSize="10" guides="1" tooltips="1" connect="1" arrows="1" fold="1" page="1" pageScale="1" pageWidth="827" pageHeight="1169" math="0" shadow="0">
      <root>
        <mxCell id="0" />
        <mxCell id="1" parent="0" />
        <mxCell id="3itcz_ZHn_ZkXYZ8WFTU-1" value="&lt;b&gt;&lt;font face=&quot;Tahoma&quot; style=&quot;font-size: 18px;&quot;&gt;Sensing&lt;/font&gt;&lt;/b&gt;" style="rounded=1;whiteSpace=wrap;html=1;strokeColor=#3399FF;" vertex="1" parent="1">
          <mxGeometry x="405" y="77" width="120" height="60" as="geometry" />
        </mxCell>
        <mxCell id="3itcz_ZHn_ZkXYZ8WFTU-2" value="&lt;font face=&quot;Tahoma&quot;&gt;&lt;span style=&quot;font-size: 18px;&quot;&gt;&lt;b&gt;LT-FG&lt;/b&gt;&lt;/span&gt;&lt;/font&gt;" style="rounded=1;whiteSpace=wrap;html=1;strokeColor=#3399FF;" vertex="1" parent="1">
          <mxGeometry x="140" y="200" width="120" height="60" as="geometry" />
        </mxCell>
        <mxCell id="3itcz_ZHn_ZkXYZ8WFTU-3" value="&lt;font face=&quot;Tahoma&quot;&gt;&lt;span style=&quot;font-size: 18px;&quot;&gt;&lt;b&gt;LT-CG&lt;/b&gt;&lt;/span&gt;&lt;/font&gt;" style="rounded=1;whiteSpace=wrap;html=1;strokeColor=#3399FF;" vertex="1" parent="1">
          <mxGeometry x="320" y="200" width="120" height="60" as="geometry" />
        </mxCell>
        <mxCell id="3itcz_ZHn_ZkXYZ8WFTU-4" value="&lt;font face=&quot;Tahoma&quot;&gt;&lt;span style=&quot;font-size: 18px;&quot;&gt;&lt;b&gt;HT-FG&lt;/b&gt;&lt;/span&gt;&lt;/font&gt;" style="rounded=1;whiteSpace=wrap;html=1;strokeColor=#3399FF;" vertex="1" parent="1">
          <mxGeometry x="500" y="200" width="120" height="60" as="geometry" />
        </mxCell>
        <mxCell id="3itcz_ZHn_ZkXYZ8WFTU-5" value="&lt;font face=&quot;Tahoma&quot;&gt;&lt;span style=&quot;font-size: 18px;&quot;&gt;&lt;b&gt;HT-CG&lt;/b&gt;&lt;/span&gt;&lt;/font&gt;" style="rounded=1;whiteSpace=wrap;html=1;strokeColor=#3399FF;" vertex="1" parent="1">
          <mxGeometry x="680" y="200" width="120" height="60" as="geometry" />
        </mxCell>
        <mxCell id="3itcz_ZHn_ZkXYZ8WFTU-6" value="&lt;font face=&quot;Tahoma&quot;&gt;&lt;span style=&quot;font-size: 16px;&quot;&gt;Long-term goal tracking tasks&lt;/span&gt;&lt;/font&gt;" style="rounded=1;whiteSpace=wrap;html=1;strokeColor=#3399FF;" vertex="1" parent="1">
          <mxGeometry x="132.5" y="320" width="135" height="70" as="geometry" />
        </mxCell>
        <mxCell id="3itcz_ZHn_ZkXYZ8WFTU-7" value="&lt;font face=&quot;Tahoma&quot;&gt;&lt;span style=&quot;font-size: 16px;&quot;&gt;Environmental monitoring&lt;/span&gt;&lt;/font&gt;" style="rounded=1;whiteSpace=wrap;html=1;strokeColor=#3399FF;" vertex="1" parent="1">
          <mxGeometry x="312.5" y="320" width="135" height="70" as="geometry" />
        </mxCell>
        <mxCell id="3itcz_ZHn_ZkXYZ8WFTU-8" value="&lt;font face=&quot;Tahoma&quot;&gt;&lt;span style=&quot;font-size: 16px;&quot;&gt;Real-time target acquisition&lt;/span&gt;&lt;/font&gt;" style="rounded=1;whiteSpace=wrap;html=1;strokeColor=#3399FF;" vertex="1" parent="1">
          <mxGeometry x="492.5" y="320" width="135" height="70" as="geometry" />
        </mxCell>
        <mxCell id="3itcz_ZHn_ZkXYZ8WFTU-9" value="&lt;font face=&quot;Tahoma&quot;&gt;&lt;span style=&quot;font-size: 16px;&quot;&gt;Emergency Response&lt;/span&gt;&lt;/font&gt;" style="rounded=1;whiteSpace=wrap;html=1;strokeColor=#3399FF;" vertex="1" parent="1">
          <mxGeometry x="672.5" y="320" width="135" height="70" as="geometry" />
        </mxCell>
        <mxCell id="3itcz_ZHn_ZkXYZ8WFTU-11" value="" style="endArrow=none;html=1;rounded=0;entryX=0.5;entryY=1;entryDx=0;entryDy=0;exitX=0.5;exitY=0;exitDx=0;exitDy=0;strokeColor=#3399FF;" edge="1" parent="1" source="3itcz_ZHn_ZkXYZ8WFTU-2" target="3itcz_ZHn_ZkXYZ8WFTU-1">
          <mxGeometry width="50" height="50" relative="1" as="geometry">
            <mxPoint x="390" y="290" as="sourcePoint" />
            <mxPoint x="440" y="240" as="targetPoint" />
          </mxGeometry>
        </mxCell>
        <mxCell id="3itcz_ZHn_ZkXYZ8WFTU-13" value="" style="endArrow=none;html=1;rounded=0;entryX=0.5;entryY=1;entryDx=0;entryDy=0;exitX=0.5;exitY=0;exitDx=0;exitDy=0;strokeColor=#3399FF;" edge="1" parent="1" source="3itcz_ZHn_ZkXYZ8WFTU-3" target="3itcz_ZHn_ZkXYZ8WFTU-1">
          <mxGeometry width="50" height="50" relative="1" as="geometry">
            <mxPoint x="210" y="210" as="sourcePoint" />
            <mxPoint x="475" y="147" as="targetPoint" />
          </mxGeometry>
        </mxCell>
        <mxCell id="3itcz_ZHn_ZkXYZ8WFTU-14" value="" style="endArrow=none;html=1;rounded=0;entryX=0.5;entryY=1;entryDx=0;entryDy=0;exitX=0.5;exitY=0;exitDx=0;exitDy=0;strokeColor=#3399FF;" edge="1" parent="1" source="3itcz_ZHn_ZkXYZ8WFTU-4" target="3itcz_ZHn_ZkXYZ8WFTU-1">
          <mxGeometry width="50" height="50" relative="1" as="geometry">
            <mxPoint x="220" y="220" as="sourcePoint" />
            <mxPoint x="485" y="157" as="targetPoint" />
          </mxGeometry>
        </mxCell>
        <mxCell id="3itcz_ZHn_ZkXYZ8WFTU-15" value="" style="endArrow=none;html=1;rounded=0;entryX=0.5;entryY=1;entryDx=0;entryDy=0;exitX=0.5;exitY=0;exitDx=0;exitDy=0;strokeColor=#3399FF;" edge="1" parent="1" source="3itcz_ZHn_ZkXYZ8WFTU-5" target="3itcz_ZHn_ZkXYZ8WFTU-1">
          <mxGeometry width="50" height="50" relative="1" as="geometry">
            <mxPoint x="230" y="230" as="sourcePoint" />
            <mxPoint x="495" y="167" as="targetPoint" />
          </mxGeometry>
        </mxCell>
        <mxCell id="3itcz_ZHn_ZkXYZ8WFTU-16" value="" style="endArrow=none;html=1;rounded=0;exitX=0.5;exitY=1;exitDx=0;exitDy=0;strokeColor=#3399FF;" edge="1" parent="1" source="3itcz_ZHn_ZkXYZ8WFTU-2" target="3itcz_ZHn_ZkXYZ8WFTU-6">
          <mxGeometry width="50" height="50" relative="1" as="geometry">
            <mxPoint x="240" y="240" as="sourcePoint" />
            <mxPoint x="505" y="177" as="targetPoint" />
          </mxGeometry>
        </mxCell>
        <mxCell id="3itcz_ZHn_ZkXYZ8WFTU-18" value="" style="endArrow=none;html=1;rounded=0;exitX=0.5;exitY=1;exitDx=0;exitDy=0;strokeColor=#3399FF;entryX=0.5;entryY=0;entryDx=0;entryDy=0;" edge="1" parent="1" source="3itcz_ZHn_ZkXYZ8WFTU-3" target="3itcz_ZHn_ZkXYZ8WFTU-7">
          <mxGeometry width="50" height="50" relative="1" as="geometry">
            <mxPoint x="210" y="270" as="sourcePoint" />
            <mxPoint x="210" y="330" as="targetPoint" />
          </mxGeometry>
        </mxCell>
        <mxCell id="3itcz_ZHn_ZkXYZ8WFTU-19" value="" style="endArrow=none;html=1;rounded=0;exitX=0.5;exitY=1;exitDx=0;exitDy=0;strokeColor=#3399FF;entryX=0.5;entryY=0;entryDx=0;entryDy=0;" edge="1" parent="1" source="3itcz_ZHn_ZkXYZ8WFTU-4" target="3itcz_ZHn_ZkXYZ8WFTU-8">
          <mxGeometry width="50" height="50" relative="1" as="geometry">
            <mxPoint x="220" y="280" as="sourcePoint" />
            <mxPoint x="220" y="340" as="targetPoint" />
          </mxGeometry>
        </mxCell>
        <mxCell id="3itcz_ZHn_ZkXYZ8WFTU-20" value="" style="endArrow=none;html=1;rounded=0;exitX=0.5;exitY=1;exitDx=0;exitDy=0;strokeColor=#3399FF;entryX=0.5;entryY=0;entryDx=0;entryDy=0;" edge="1" parent="1" source="3itcz_ZHn_ZkXYZ8WFTU-5" target="3itcz_ZHn_ZkXYZ8WFTU-9">
          <mxGeometry width="50" height="50" relative="1" as="geometry">
            <mxPoint x="230" y="290" as="sourcePoint" />
            <mxPoint x="230" y="350" as="targetPoint" />
          </mxGeometry>
        </mxCell>
        <mxCell id="3itcz_ZHn_ZkXYZ8WFTU-21" value="&lt;font face=&quot;Tahoma&quot;&gt;&lt;span style=&quot;font-size: 18px;&quot;&gt;&lt;b&gt;Communication&lt;/b&gt;&lt;/span&gt;&lt;/font&gt;" style="rounded=1;whiteSpace=wrap;html=1;strokeColor=#3399FF;" vertex="1" parent="1">
          <mxGeometry x="383" y="473" width="171" height="60" as="geometry" />
        </mxCell>
        <mxCell id="3itcz_ZHn_ZkXYZ8WFTU-22" value="&lt;font face=&quot;Tahoma&quot;&gt;&lt;span style=&quot;font-size: 18px;&quot;&gt;&lt;b&gt;LT-FG&lt;/b&gt;&lt;/span&gt;&lt;/font&gt;" style="rounded=1;whiteSpace=wrap;html=1;strokeColor=#3399FF;" vertex="1" parent="1">
          <mxGeometry x="140" y="598" width="120" height="60" as="geometry" />
        </mxCell>
        <mxCell id="3itcz_ZHn_ZkXYZ8WFTU-23" value="&lt;font face=&quot;Tahoma&quot;&gt;&lt;span style=&quot;font-size: 18px;&quot;&gt;&lt;b&gt;LT-CG&lt;/b&gt;&lt;/span&gt;&lt;/font&gt;" style="rounded=1;whiteSpace=wrap;html=1;strokeColor=#3399FF;" vertex="1" parent="1">
          <mxGeometry x="320" y="598" width="120" height="60" as="geometry" />
        </mxCell>
        <mxCell id="3itcz_ZHn_ZkXYZ8WFTU-24" value="&lt;font face=&quot;Tahoma&quot;&gt;&lt;span style=&quot;font-size: 18px;&quot;&gt;&lt;b&gt;HT-FG&lt;/b&gt;&lt;/span&gt;&lt;/font&gt;" style="rounded=1;whiteSpace=wrap;html=1;strokeColor=#3399FF;" vertex="1" parent="1">
          <mxGeometry x="500" y="598" width="120" height="60" as="geometry" />
        </mxCell>
        <mxCell id="3itcz_ZHn_ZkXYZ8WFTU-25" value="&lt;font face=&quot;Tahoma&quot;&gt;&lt;span style=&quot;font-size: 18px;&quot;&gt;&lt;b&gt;HT-CG&lt;/b&gt;&lt;/span&gt;&lt;/font&gt;" style="rounded=1;whiteSpace=wrap;html=1;strokeColor=#3399FF;" vertex="1" parent="1">
          <mxGeometry x="680" y="598" width="120" height="60" as="geometry" />
        </mxCell>
        <mxCell id="3itcz_ZHn_ZkXYZ8WFTU-26" value="&lt;font face=&quot;Tahoma&quot;&gt;&lt;span style=&quot;font-size: 16px;&quot;&gt;Static network coverage&lt;/span&gt;&lt;/font&gt;" style="rounded=1;whiteSpace=wrap;html=1;strokeColor=#3399FF;" vertex="1" parent="1">
          <mxGeometry x="132.5" y="718" width="135" height="70" as="geometry" />
        </mxCell>
        <mxCell id="3itcz_ZHn_ZkXYZ8WFTU-27" value="&lt;font face=&quot;Tahoma&quot;&gt;&lt;span style=&quot;font-size: 16px;&quot;&gt;Wide area communication network construction&lt;/span&gt;&lt;/font&gt;" style="rounded=1;whiteSpace=wrap;html=1;strokeColor=#3399FF;" vertex="1" parent="1">
          <mxGeometry x="302.75" y="718" width="154.5" height="70" as="geometry" />
        </mxCell>
        <mxCell id="3itcz_ZHn_ZkXYZ8WFTU-28" value="&lt;font face=&quot;Tahoma&quot;&gt;&lt;span style=&quot;font-size: 16px;&quot;&gt;Emergency Communications&lt;/span&gt;&lt;/font&gt;" style="rounded=1;whiteSpace=wrap;html=1;strokeColor=#3399FF;" vertex="1" parent="1">
          <mxGeometry x="492.5" y="718" width="135" height="70" as="geometry" />
        </mxCell>
        <mxCell id="3itcz_ZHn_ZkXYZ8WFTU-29" value="&lt;font face=&quot;Tahoma&quot;&gt;&lt;span style=&quot;font-size: 16px;&quot;&gt;Communication Recovery&lt;/span&gt;&lt;/font&gt;" style="rounded=1;whiteSpace=wrap;html=1;strokeColor=#3399FF;" vertex="1" parent="1">
          <mxGeometry x="672.5" y="718" width="135" height="70" as="geometry" />
        </mxCell>
        <mxCell id="3itcz_ZHn_ZkXYZ8WFTU-30" value="" style="endArrow=none;html=1;rounded=0;entryX=0.5;entryY=1;entryDx=0;entryDy=0;exitX=0.5;exitY=0;exitDx=0;exitDy=0;strokeColor=#3399FF;" edge="1" parent="1" source="3itcz_ZHn_ZkXYZ8WFTU-22" target="3itcz_ZHn_ZkXYZ8WFTU-21">
          <mxGeometry width="50" height="50" relative="1" as="geometry">
            <mxPoint x="390" y="688" as="sourcePoint" />
            <mxPoint x="440" y="638" as="targetPoint" />
          </mxGeometry>
        </mxCell>
        <mxCell id="3itcz_ZHn_ZkXYZ8WFTU-31" value="" style="endArrow=none;html=1;rounded=0;entryX=0.5;entryY=1;entryDx=0;entryDy=0;exitX=0.5;exitY=0;exitDx=0;exitDy=0;strokeColor=#3399FF;" edge="1" parent="1" source="3itcz_ZHn_ZkXYZ8WFTU-23" target="3itcz_ZHn_ZkXYZ8WFTU-21">
          <mxGeometry width="50" height="50" relative="1" as="geometry">
            <mxPoint x="210" y="608" as="sourcePoint" />
            <mxPoint x="475" y="545" as="targetPoint" />
          </mxGeometry>
        </mxCell>
        <mxCell id="3itcz_ZHn_ZkXYZ8WFTU-32" value="" style="endArrow=none;html=1;rounded=0;entryX=0.5;entryY=1;entryDx=0;entryDy=0;exitX=0.5;exitY=0;exitDx=0;exitDy=0;strokeColor=#3399FF;" edge="1" parent="1" source="3itcz_ZHn_ZkXYZ8WFTU-24" target="3itcz_ZHn_ZkXYZ8WFTU-21">
          <mxGeometry width="50" height="50" relative="1" as="geometry">
            <mxPoint x="220" y="618" as="sourcePoint" />
            <mxPoint x="485" y="555" as="targetPoint" />
          </mxGeometry>
        </mxCell>
        <mxCell id="3itcz_ZHn_ZkXYZ8WFTU-33" value="" style="endArrow=none;html=1;rounded=0;entryX=0.5;entryY=1;entryDx=0;entryDy=0;exitX=0.5;exitY=0;exitDx=0;exitDy=0;strokeColor=#3399FF;" edge="1" parent="1" source="3itcz_ZHn_ZkXYZ8WFTU-25" target="3itcz_ZHn_ZkXYZ8WFTU-21">
          <mxGeometry width="50" height="50" relative="1" as="geometry">
            <mxPoint x="230" y="628" as="sourcePoint" />
            <mxPoint x="495" y="565" as="targetPoint" />
          </mxGeometry>
        </mxCell>
        <mxCell id="3itcz_ZHn_ZkXYZ8WFTU-34" value="" style="endArrow=none;html=1;rounded=0;exitX=0.5;exitY=1;exitDx=0;exitDy=0;strokeColor=#3399FF;" edge="1" parent="1" source="3itcz_ZHn_ZkXYZ8WFTU-22" target="3itcz_ZHn_ZkXYZ8WFTU-26">
          <mxGeometry width="50" height="50" relative="1" as="geometry">
            <mxPoint x="240" y="638" as="sourcePoint" />
            <mxPoint x="505" y="575" as="targetPoint" />
          </mxGeometry>
        </mxCell>
        <mxCell id="3itcz_ZHn_ZkXYZ8WFTU-35" value="" style="endArrow=none;html=1;rounded=0;exitX=0.5;exitY=1;exitDx=0;exitDy=0;strokeColor=#3399FF;entryX=0.5;entryY=0;entryDx=0;entryDy=0;" edge="1" parent="1" source="3itcz_ZHn_ZkXYZ8WFTU-23" target="3itcz_ZHn_ZkXYZ8WFTU-27">
          <mxGeometry width="50" height="50" relative="1" as="geometry">
            <mxPoint x="210" y="668" as="sourcePoint" />
            <mxPoint x="210" y="728" as="targetPoint" />
          </mxGeometry>
        </mxCell>
        <mxCell id="3itcz_ZHn_ZkXYZ8WFTU-36" value="" style="endArrow=none;html=1;rounded=0;exitX=0.5;exitY=1;exitDx=0;exitDy=0;strokeColor=#3399FF;entryX=0.5;entryY=0;entryDx=0;entryDy=0;" edge="1" parent="1" source="3itcz_ZHn_ZkXYZ8WFTU-24" target="3itcz_ZHn_ZkXYZ8WFTU-28">
          <mxGeometry width="50" height="50" relative="1" as="geometry">
            <mxPoint x="220" y="678" as="sourcePoint" />
            <mxPoint x="220" y="738" as="targetPoint" />
          </mxGeometry>
        </mxCell>
        <mxCell id="3itcz_ZHn_ZkXYZ8WFTU-37" value="" style="endArrow=none;html=1;rounded=0;exitX=0.5;exitY=1;exitDx=0;exitDy=0;strokeColor=#3399FF;entryX=0.5;entryY=0;entryDx=0;entryDy=0;" edge="1" parent="1" source="3itcz_ZHn_ZkXYZ8WFTU-25" target="3itcz_ZHn_ZkXYZ8WFTU-29">
          <mxGeometry width="50" height="50" relative="1" as="geometry">
            <mxPoint x="230" y="688" as="sourcePoint" />
            <mxPoint x="230" y="748" as="targetPoint" />
          </mxGeometry>
        </mxCell>
      </root>
    </mxGraphModel>
  </diagram>
</mxfile>
